<mxfile host="app.diagrams.net" agent="Mozilla/5.0 (Windows NT 10.0; Win64; x64) AppleWebKit/537.36 (KHTML, like Gecko) Chrome/135.0.0.0 Safari/537.36" version="26.2.14">
  <diagram name="Страница — 1" id="hkevkZ7WUPxYEFpDylLr">
    <mxGraphModel dx="911" dy="1081" grid="0" gridSize="10" guides="1" tooltips="1" connect="1" arrows="1" fold="1" page="0" pageScale="1" pageWidth="827" pageHeight="1169" math="0" shadow="0">
      <root>
        <mxCell id="0" />
        <mxCell id="1" parent="0" />
        <mxCell id="Vn-Y2vAZev4jrzm5k0EB-1" value="Пользователь" style="rounded=1;whiteSpace=wrap;html=1;" vertex="1" parent="1">
          <mxGeometry x="-10" y="-111" width="120" height="60" as="geometry" />
        </mxCell>
        <mxCell id="Vn-Y2vAZev4jrzm5k0EB-2" value="Сайт" style="rounded=1;whiteSpace=wrap;html=1;" vertex="1" parent="1">
          <mxGeometry x="110" y="-111" width="120" height="60" as="geometry" />
        </mxCell>
        <mxCell id="Vn-Y2vAZev4jrzm5k0EB-3" value="Система сайта" style="rounded=1;whiteSpace=wrap;html=1;" vertex="1" parent="1">
          <mxGeometry x="230" y="-111" width="120" height="60" as="geometry" />
        </mxCell>
        <mxCell id="Vn-Y2vAZev4jrzm5k0EB-9" value="Пользователь" style="rounded=0;whiteSpace=wrap;html=1;" vertex="1" parent="1">
          <mxGeometry x="-10" y="-50" width="120" height="27" as="geometry" />
        </mxCell>
        <mxCell id="Vn-Y2vAZev4jrzm5k0EB-10" value="Сайт" style="rounded=0;whiteSpace=wrap;html=1;" vertex="1" parent="1">
          <mxGeometry x="110" y="-50" width="120" height="27" as="geometry" />
        </mxCell>
        <mxCell id="Vn-Y2vAZev4jrzm5k0EB-11" value="Оформление заказа" style="rounded=0;whiteSpace=wrap;html=1;" vertex="1" parent="1">
          <mxGeometry x="230" y="-50" width="120" height="27" as="geometry" />
        </mxCell>
        <mxCell id="Vn-Y2vAZev4jrzm5k0EB-12" value="" style="rounded=0;whiteSpace=wrap;html=1;" vertex="1" parent="1">
          <mxGeometry x="-10" y="-23" width="120" height="542" as="geometry" />
        </mxCell>
        <mxCell id="Vn-Y2vAZev4jrzm5k0EB-13" value="" style="rounded=0;whiteSpace=wrap;html=1;" vertex="1" parent="1">
          <mxGeometry x="110" y="-23" width="120" height="542" as="geometry" />
        </mxCell>
        <mxCell id="Vn-Y2vAZev4jrzm5k0EB-14" value="" style="rounded=0;whiteSpace=wrap;html=1;" vertex="1" parent="1">
          <mxGeometry x="230" y="-23" width="120" height="542" as="geometry" />
        </mxCell>
        <mxCell id="Vn-Y2vAZev4jrzm5k0EB-17" style="edgeStyle=none;curved=1;rounded=0;orthogonalLoop=1;jettySize=auto;html=1;entryX=0.5;entryY=0;entryDx=0;entryDy=0;fontSize=12;startSize=8;endSize=8;" edge="1" parent="1" source="Vn-Y2vAZev4jrzm5k0EB-15" target="Vn-Y2vAZev4jrzm5k0EB-16">
          <mxGeometry relative="1" as="geometry" />
        </mxCell>
        <mxCell id="Vn-Y2vAZev4jrzm5k0EB-15" value="" style="ellipse;whiteSpace=wrap;html=1;aspect=fixed;" vertex="1" parent="1">
          <mxGeometry x="36" y="-17" width="28" height="28" as="geometry" />
        </mxCell>
        <mxCell id="Vn-Y2vAZev4jrzm5k0EB-16" value="Добавление сертификата в корзину" style="rounded=1;whiteSpace=wrap;html=1;" vertex="1" parent="1">
          <mxGeometry x="1" y="28" width="98" height="49" as="geometry" />
        </mxCell>
        <mxCell id="Vn-Y2vAZev4jrzm5k0EB-22" style="edgeStyle=none;curved=1;rounded=0;orthogonalLoop=1;jettySize=auto;html=1;exitX=0.5;exitY=1;exitDx=0;exitDy=0;fontSize=12;startSize=8;endSize=8;" edge="1" parent="1" source="Vn-Y2vAZev4jrzm5k0EB-20" target="Vn-Y2vAZev4jrzm5k0EB-21">
          <mxGeometry relative="1" as="geometry" />
        </mxCell>
        <mxCell id="Vn-Y2vAZev4jrzm5k0EB-20" value="Проверка наличия товара" style="rounded=1;whiteSpace=wrap;html=1;" vertex="1" parent="1">
          <mxGeometry x="121" y="34" width="98" height="49" as="geometry" />
        </mxCell>
        <mxCell id="Vn-Y2vAZev4jrzm5k0EB-25" style="edgeStyle=none;curved=1;rounded=0;orthogonalLoop=1;jettySize=auto;html=1;entryX=0;entryY=0.5;entryDx=0;entryDy=0;fontSize=12;startSize=8;endSize=8;" edge="1" parent="1" source="Vn-Y2vAZev4jrzm5k0EB-21" target="Vn-Y2vAZev4jrzm5k0EB-24">
          <mxGeometry relative="1" as="geometry" />
        </mxCell>
        <mxCell id="Vn-Y2vAZev4jrzm5k0EB-26" style="edgeStyle=none;curved=1;rounded=0;orthogonalLoop=1;jettySize=auto;html=1;entryX=1;entryY=0.5;entryDx=0;entryDy=0;fontSize=12;startSize=8;endSize=8;" edge="1" parent="1" source="Vn-Y2vAZev4jrzm5k0EB-21" target="Vn-Y2vAZev4jrzm5k0EB-23">
          <mxGeometry relative="1" as="geometry" />
        </mxCell>
        <mxCell id="Vn-Y2vAZev4jrzm5k0EB-21" value="" style="rhombus;whiteSpace=wrap;html=1;" vertex="1" parent="1">
          <mxGeometry x="158.5" y="100.5" width="23" height="22" as="geometry" />
        </mxCell>
        <mxCell id="Vn-Y2vAZev4jrzm5k0EB-33" style="edgeStyle=none;curved=1;rounded=0;orthogonalLoop=1;jettySize=auto;html=1;exitX=0.5;exitY=1;exitDx=0;exitDy=0;fontSize=12;startSize=8;endSize=8;" edge="1" parent="1" source="Vn-Y2vAZev4jrzm5k0EB-23" target="Vn-Y2vAZev4jrzm5k0EB-29">
          <mxGeometry relative="1" as="geometry" />
        </mxCell>
        <mxCell id="Vn-Y2vAZev4jrzm5k0EB-23" value="Выбор количества" style="rounded=1;whiteSpace=wrap;html=1;" vertex="1" parent="1">
          <mxGeometry x="1" y="87" width="98" height="49" as="geometry" />
        </mxCell>
        <mxCell id="Vn-Y2vAZev4jrzm5k0EB-69" style="edgeStyle=orthogonalEdgeStyle;rounded=0;orthogonalLoop=1;jettySize=auto;html=1;exitX=1;exitY=0.5;exitDx=0;exitDy=0;entryX=1;entryY=0.5;entryDx=0;entryDy=0;fontSize=12;startSize=8;endSize=8;" edge="1" parent="1" source="Vn-Y2vAZev4jrzm5k0EB-24" target="Vn-Y2vAZev4jrzm5k0EB-62">
          <mxGeometry relative="1" as="geometry">
            <Array as="points">
              <mxPoint x="346" y="112" />
              <mxPoint x="346" y="490" />
            </Array>
          </mxGeometry>
        </mxCell>
        <mxCell id="Vn-Y2vAZev4jrzm5k0EB-24" value="Отменить оформление" style="rounded=1;whiteSpace=wrap;html=1;" vertex="1" parent="1">
          <mxGeometry x="241" y="87" width="98" height="49" as="geometry" />
        </mxCell>
        <mxCell id="Vn-Y2vAZev4jrzm5k0EB-27" value="Успешно" style="text;html=1;align=center;verticalAlign=middle;whiteSpace=wrap;rounded=0;" vertex="1" parent="1">
          <mxGeometry x="106" y="83" width="60" height="30" as="geometry" />
        </mxCell>
        <mxCell id="Vn-Y2vAZev4jrzm5k0EB-28" value="&lt;font style=&quot;font-size: 10px;&quot;&gt;Неуспешно&lt;/font&gt;" style="text;html=1;align=center;verticalAlign=middle;whiteSpace=wrap;rounded=0;" vertex="1" parent="1">
          <mxGeometry x="166" y="83" width="69" height="31" as="geometry" />
        </mxCell>
        <mxCell id="Vn-Y2vAZev4jrzm5k0EB-67" style="edgeStyle=none;curved=1;rounded=0;orthogonalLoop=1;jettySize=auto;html=1;exitX=1;exitY=0.5;exitDx=0;exitDy=0;entryX=0;entryY=0.5;entryDx=0;entryDy=0;fontSize=12;startSize=8;endSize=8;" edge="1" parent="1" source="Vn-Y2vAZev4jrzm5k0EB-29" target="Vn-Y2vAZev4jrzm5k0EB-30">
          <mxGeometry relative="1" as="geometry" />
        </mxCell>
        <mxCell id="Vn-Y2vAZev4jrzm5k0EB-29" value="Нажатие кнопки &quot;Оформить заказ&quot;" style="rounded=1;whiteSpace=wrap;html=1;" vertex="1" parent="1">
          <mxGeometry x="1" y="150" width="98" height="49" as="geometry" />
        </mxCell>
        <mxCell id="Vn-Y2vAZev4jrzm5k0EB-68" style="edgeStyle=none;curved=1;rounded=0;orthogonalLoop=1;jettySize=auto;html=1;exitX=1;exitY=0.5;exitDx=0;exitDy=0;fontSize=12;startSize=8;endSize=8;" edge="1" parent="1" source="Vn-Y2vAZev4jrzm5k0EB-30" target="Vn-Y2vAZev4jrzm5k0EB-31">
          <mxGeometry relative="1" as="geometry" />
        </mxCell>
        <mxCell id="Vn-Y2vAZev4jrzm5k0EB-30" value="Оправка в оформление заказа" style="rounded=1;whiteSpace=wrap;html=1;" vertex="1" parent="1">
          <mxGeometry x="121" y="150" width="98" height="49" as="geometry" />
        </mxCell>
        <mxCell id="Vn-Y2vAZev4jrzm5k0EB-44" style="edgeStyle=none;curved=1;rounded=0;orthogonalLoop=1;jettySize=auto;html=1;exitX=0.5;exitY=1;exitDx=0;exitDy=0;entryX=0.5;entryY=0;entryDx=0;entryDy=0;fontSize=12;startSize=8;endSize=8;" edge="1" parent="1" target="Vn-Y2vAZev4jrzm5k0EB-34">
          <mxGeometry relative="1" as="geometry">
            <mxPoint x="287" y="199" as="sourcePoint" />
            <mxPoint x="289" y="223" as="targetPoint" />
          </mxGeometry>
        </mxCell>
        <mxCell id="Vn-Y2vAZev4jrzm5k0EB-31" value="Проверка количества товара" style="rounded=1;whiteSpace=wrap;html=1;" vertex="1" parent="1">
          <mxGeometry x="239" y="150" width="98" height="49" as="geometry" />
        </mxCell>
        <mxCell id="Vn-Y2vAZev4jrzm5k0EB-32" style="edgeStyle=none;curved=1;rounded=0;orthogonalLoop=1;jettySize=auto;html=1;exitX=1;exitY=0.5;exitDx=0;exitDy=0;entryX=0.063;entryY=0.381;entryDx=0;entryDy=0;entryPerimeter=0;fontSize=12;startSize=8;endSize=8;" edge="1" parent="1" source="Vn-Y2vAZev4jrzm5k0EB-16" target="Vn-Y2vAZev4jrzm5k0EB-20">
          <mxGeometry relative="1" as="geometry" />
        </mxCell>
        <mxCell id="Vn-Y2vAZev4jrzm5k0EB-40" style="edgeStyle=none;curved=1;rounded=0;orthogonalLoop=1;jettySize=auto;html=1;exitX=0;exitY=0.5;exitDx=0;exitDy=0;entryX=1;entryY=0.5;entryDx=0;entryDy=0;fontSize=12;startSize=8;endSize=8;" edge="1" parent="1" source="Vn-Y2vAZev4jrzm5k0EB-34" target="Vn-Y2vAZev4jrzm5k0EB-36">
          <mxGeometry relative="1" as="geometry" />
        </mxCell>
        <mxCell id="Vn-Y2vAZev4jrzm5k0EB-47" style="edgeStyle=none;curved=1;rounded=0;orthogonalLoop=1;jettySize=auto;html=1;exitX=0.5;exitY=1;exitDx=0;exitDy=0;entryX=0.5;entryY=0;entryDx=0;entryDy=0;fontSize=12;startSize=8;endSize=8;" edge="1" parent="1" source="Vn-Y2vAZev4jrzm5k0EB-34" target="Vn-Y2vAZev4jrzm5k0EB-35">
          <mxGeometry relative="1" as="geometry" />
        </mxCell>
        <mxCell id="Vn-Y2vAZev4jrzm5k0EB-34" value="" style="rhombus;whiteSpace=wrap;html=1;" vertex="1" parent="1">
          <mxGeometry x="275.5" y="223" width="23" height="22" as="geometry" />
        </mxCell>
        <mxCell id="Vn-Y2vAZev4jrzm5k0EB-49" style="edgeStyle=none;curved=1;rounded=0;orthogonalLoop=1;jettySize=auto;html=1;exitX=0;exitY=0.5;exitDx=0;exitDy=0;fontSize=12;startSize=8;endSize=8;" edge="1" parent="1" source="Vn-Y2vAZev4jrzm5k0EB-35" target="Vn-Y2vAZev4jrzm5k0EB-39">
          <mxGeometry relative="1" as="geometry" />
        </mxCell>
        <mxCell id="Vn-Y2vAZev4jrzm5k0EB-35" value="" style="rhombus;whiteSpace=wrap;html=1;" vertex="1" parent="1">
          <mxGeometry x="275.5" y="283" width="23" height="22" as="geometry" />
        </mxCell>
        <mxCell id="Vn-Y2vAZev4jrzm5k0EB-41" style="edgeStyle=none;curved=1;rounded=0;orthogonalLoop=1;jettySize=auto;html=1;exitX=0;exitY=0.5;exitDx=0;exitDy=0;entryX=1;entryY=0.5;entryDx=0;entryDy=0;fontSize=12;startSize=8;endSize=8;" edge="1" parent="1" source="Vn-Y2vAZev4jrzm5k0EB-36" target="Vn-Y2vAZev4jrzm5k0EB-37">
          <mxGeometry relative="1" as="geometry" />
        </mxCell>
        <mxCell id="Vn-Y2vAZev4jrzm5k0EB-36" value="Обработать отмену заказа" style="rounded=1;whiteSpace=wrap;html=1;" vertex="1" parent="1">
          <mxGeometry x="121" y="209" width="98" height="49" as="geometry" />
        </mxCell>
        <mxCell id="Vn-Y2vAZev4jrzm5k0EB-70" style="edgeStyle=orthogonalEdgeStyle;rounded=0;orthogonalLoop=1;jettySize=auto;html=1;exitX=0;exitY=0.5;exitDx=0;exitDy=0;entryX=0;entryY=0.5;entryDx=0;entryDy=0;fontSize=12;startSize=8;endSize=8;" edge="1" parent="1" source="Vn-Y2vAZev4jrzm5k0EB-37" target="Vn-Y2vAZev4jrzm5k0EB-62">
          <mxGeometry relative="1" as="geometry">
            <Array as="points">
              <mxPoint x="-4" y="233" />
              <mxPoint x="-4" y="490" />
            </Array>
          </mxGeometry>
        </mxCell>
        <mxCell id="Vn-Y2vAZev4jrzm5k0EB-37" value="Отменить оформление" style="rounded=1;whiteSpace=wrap;html=1;" vertex="1" parent="1">
          <mxGeometry x="1" y="208" width="98" height="49" as="geometry" />
        </mxCell>
        <mxCell id="Vn-Y2vAZev4jrzm5k0EB-52" style="edgeStyle=orthogonalEdgeStyle;rounded=0;orthogonalLoop=1;jettySize=auto;html=1;exitX=0.5;exitY=1;exitDx=0;exitDy=0;entryX=0;entryY=0.5;entryDx=0;entryDy=0;fontSize=12;startSize=8;endSize=8;" edge="1" parent="1" source="Vn-Y2vAZev4jrzm5k0EB-38" target="Vn-Y2vAZev4jrzm5k0EB-51">
          <mxGeometry relative="1" as="geometry" />
        </mxCell>
        <mxCell id="Vn-Y2vAZev4jrzm5k0EB-38" value="Ввод платежных данных" style="rounded=1;whiteSpace=wrap;html=1;" vertex="1" parent="1">
          <mxGeometry x="-1" y="270" width="98" height="49" as="geometry" />
        </mxCell>
        <mxCell id="Vn-Y2vAZev4jrzm5k0EB-50" style="edgeStyle=none;curved=1;rounded=0;orthogonalLoop=1;jettySize=auto;html=1;exitX=0;exitY=0.5;exitDx=0;exitDy=0;entryX=1;entryY=0.5;entryDx=0;entryDy=0;fontSize=12;startSize=8;endSize=8;" edge="1" parent="1" source="Vn-Y2vAZev4jrzm5k0EB-39" target="Vn-Y2vAZev4jrzm5k0EB-38">
          <mxGeometry relative="1" as="geometry" />
        </mxCell>
        <mxCell id="Vn-Y2vAZev4jrzm5k0EB-39" value="Отправка запроса на оплату" style="rounded=1;whiteSpace=wrap;html=1;" vertex="1" parent="1">
          <mxGeometry x="121" y="270" width="98" height="49" as="geometry" />
        </mxCell>
        <mxCell id="Vn-Y2vAZev4jrzm5k0EB-46" value="&lt;font style=&quot;font-size: 10px;&quot;&gt;Неуспешно&lt;/font&gt;" style="text;html=1;align=center;verticalAlign=middle;whiteSpace=wrap;rounded=0;" vertex="1" parent="1">
          <mxGeometry x="224" y="204" width="69" height="31" as="geometry" />
        </mxCell>
        <mxCell id="Vn-Y2vAZev4jrzm5k0EB-48" value="Успешно" style="text;html=1;align=center;verticalAlign=middle;whiteSpace=wrap;rounded=0;" vertex="1" parent="1">
          <mxGeometry x="287" y="258" width="60" height="30" as="geometry" />
        </mxCell>
        <mxCell id="Vn-Y2vAZev4jrzm5k0EB-57" style="edgeStyle=none;curved=1;rounded=0;orthogonalLoop=1;jettySize=auto;html=1;exitX=1;exitY=0.5;exitDx=0;exitDy=0;entryX=0;entryY=0.5;entryDx=0;entryDy=0;fontSize=12;startSize=8;endSize=8;" edge="1" parent="1" source="Vn-Y2vAZev4jrzm5k0EB-51" target="Vn-Y2vAZev4jrzm5k0EB-54">
          <mxGeometry relative="1" as="geometry" />
        </mxCell>
        <mxCell id="Vn-Y2vAZev4jrzm5k0EB-51" value="Проведение транзакции" style="rounded=1;whiteSpace=wrap;html=1;" vertex="1" parent="1">
          <mxGeometry x="121" y="329" width="98" height="49" as="geometry" />
        </mxCell>
        <mxCell id="Vn-Y2vAZev4jrzm5k0EB-55" style="edgeStyle=none;curved=1;rounded=0;orthogonalLoop=1;jettySize=auto;html=1;exitX=0.5;exitY=0;exitDx=0;exitDy=0;entryX=0.5;entryY=1;entryDx=0;entryDy=0;fontSize=12;startSize=8;endSize=8;" edge="1" parent="1" source="Vn-Y2vAZev4jrzm5k0EB-54" target="Vn-Y2vAZev4jrzm5k0EB-35">
          <mxGeometry relative="1" as="geometry" />
        </mxCell>
        <mxCell id="Vn-Y2vAZev4jrzm5k0EB-60" style="edgeStyle=none;curved=1;rounded=0;orthogonalLoop=1;jettySize=auto;html=1;exitX=0.5;exitY=1;exitDx=0;exitDy=0;entryX=0.5;entryY=0;entryDx=0;entryDy=0;fontSize=12;startSize=8;endSize=8;" edge="1" parent="1" source="Vn-Y2vAZev4jrzm5k0EB-54" target="Vn-Y2vAZev4jrzm5k0EB-58">
          <mxGeometry relative="1" as="geometry" />
        </mxCell>
        <mxCell id="Vn-Y2vAZev4jrzm5k0EB-54" value="" style="rhombus;whiteSpace=wrap;html=1;" vertex="1" parent="1">
          <mxGeometry x="275.5" y="342.5" width="23" height="22" as="geometry" />
        </mxCell>
        <mxCell id="Vn-Y2vAZev4jrzm5k0EB-56" value="&lt;font style=&quot;font-size: 10px;&quot;&gt;Неуспешно&lt;/font&gt;" style="text;html=1;align=center;verticalAlign=middle;whiteSpace=wrap;rounded=0;" vertex="1" parent="1">
          <mxGeometry x="287" y="319" width="69" height="31" as="geometry" />
        </mxCell>
        <mxCell id="Vn-Y2vAZev4jrzm5k0EB-64" style="edgeStyle=none;curved=1;rounded=0;orthogonalLoop=1;jettySize=auto;html=1;exitX=0;exitY=0.5;exitDx=0;exitDy=0;entryX=1;entryY=0.5;entryDx=0;entryDy=0;fontSize=12;startSize=8;endSize=8;" edge="1" parent="1" source="Vn-Y2vAZev4jrzm5k0EB-58" target="Vn-Y2vAZev4jrzm5k0EB-61">
          <mxGeometry relative="1" as="geometry" />
        </mxCell>
        <mxCell id="Vn-Y2vAZev4jrzm5k0EB-58" value="Добавление сертификата в бд" style="rounded=1;whiteSpace=wrap;html=1;" vertex="1" parent="1">
          <mxGeometry x="238" y="392" width="98" height="49" as="geometry" />
        </mxCell>
        <mxCell id="Vn-Y2vAZev4jrzm5k0EB-59" value="Успешно" style="text;html=1;align=center;verticalAlign=middle;whiteSpace=wrap;rounded=0;" vertex="1" parent="1">
          <mxGeometry x="290" y="362" width="60" height="30" as="geometry" />
        </mxCell>
        <mxCell id="Vn-Y2vAZev4jrzm5k0EB-63" style="edgeStyle=none;curved=1;rounded=0;orthogonalLoop=1;jettySize=auto;html=1;exitX=0.5;exitY=1;exitDx=0;exitDy=0;fontSize=12;startSize=8;endSize=8;" edge="1" parent="1" source="Vn-Y2vAZev4jrzm5k0EB-61" target="Vn-Y2vAZev4jrzm5k0EB-62">
          <mxGeometry relative="1" as="geometry" />
        </mxCell>
        <mxCell id="Vn-Y2vAZev4jrzm5k0EB-61" value="Отображение сертификата на странице сайта" style="rounded=1;whiteSpace=wrap;html=1;" vertex="1" parent="1">
          <mxGeometry x="121" y="392" width="98" height="49" as="geometry" />
        </mxCell>
        <mxCell id="Vn-Y2vAZev4jrzm5k0EB-62" value="" style="ellipse;html=1;shape=endState;fillColor=strokeColor;" vertex="1" parent="1">
          <mxGeometry x="155" y="475" width="30" height="30" as="geometry" />
        </mxCell>
      </root>
    </mxGraphModel>
  </diagram>
</mxfile>
